<svg viewBox="0 0 455 40" fill="none" xmlns="http://www.w3.org/2000/svg"><path d="M9.702 16.507c3.563 0 7.295-.168 10.857-.337 1.527 0 2.884-.168 4.41-.168l19.34-1.01c7.803-.338 15.436-.843 23.24-1.18 11.026-.674 22.052-1.179 33.079-1.853 2.544-.168 5.089-.168 7.633-.337 6.447-.337 12.893-.673 19.339-.842 6.446-.337 12.893-.674 19.339-.842 2.544-.169 5.089-.337 7.633-.337 10.179-.337 20.527-.674 30.705-1.01 6.276-.169 12.553-.337 18.999-.674 2.545 0 4.92-.169 7.464-.169l29.687-.505c9.839-.169 19.508-.337 29.347-.505h26.972c10.009 0 19.848 0 29.856-.169H359.325c-15.268.169-30.705.337-45.972.674-6.446.168-12.723.168-19.169.337-2.714 0-5.598 0-8.312.168-9.33.169-18.491.506-27.821.674-10.687.337-21.374.505-32.061.842-1.866 0-3.563.169-5.429.169-5.767.336-11.365.505-17.133.842l-34.606 1.516c-1.696 0-3.393.168-5.089.337-5.598.336-11.366.842-16.964 1.179-10.178.673-20.187 1.347-30.365 2.021-2.714.168-5.598.505-8.312.674-6.446.505-12.893 1.01-19.339 1.684-8.142.674-16.455 1.348-24.597 2.021-11.366 1.011-22.901 2.022-34.267 3.032-2.714.169-5.428.506-8.312.674L6.818 24.93c-.509 0-1.017.337-1.017 1.01 0 .506.508 1.011 1.017 1.011 1.866 0 3.563.169 5.429.169-.17.505-.34 1.01-.34 1.516 0 1.853 1.527 3.537 3.563 3.537 14.08-.842 27.99-1.853 42.07-2.527 12.214-.505 24.428-1.179 36.642-1.684 13.401-.674 26.972-1.348 40.373-1.853 4.241-.168 8.482-.337 12.723-.674 1.187 0 2.375-.168 3.732-.168 21.714-.505 43.427-1.18 65.141-1.684 11.535-.337 23.24-.674 34.775-.843 4.241-.168 8.313-.168 12.554-.337l66.667-1.01 28.499-.505c8.143-.169 16.285-.169 24.428-.506 6.785-.168 13.401-.505 20.187-.674 3.392-.168 6.785-.168 10.008-.337l22.901-1.515c-.509.673-.509 1.684-.339 2.358.17.842.679 1.516 1.527 1.853.678.336 1.696.673 2.375.337 1.696-.674 3.392-1.348 4.919-2.022h-.17c.17 0 .17-.168.34-.168.169 0 .339-.169.339-.169h-.17c.849-.337 1.697-.674 2.715-1.179.848-.337 1.866-.842 2.714-1.179 1.018-.505 1.866-1.01 2.884-1.516 1.017-.505 1.696-1.853 1.696-3.032 0-.674-.17-1.179-.509-1.852-.339-.674-1.187-1.516-2.036-1.685-.848-.168-1.696-.337-2.544-.337h-.509c-.509 0-1.187 0-1.696.169-1.357.168-2.545.336-3.902.336-1.018 0-2.036.169-3.223.169-2.884.168-5.598.337-8.482.674-.679 0-1.527.168-2.205.168.339-.337.509-.674.509-1.01.169-.337.169-.674.169-1.011 0-.169 0-.505.17-.674 0-.337 0-.674-.17-.842 0 0 .17 0 .17-.169.509-.336 1.018-.673 1.357-1.347.339-.505.509-1.18.509-1.853 0-.674-.17-1.179-.509-1.853-.17-.168-.339-.505-.509-.673-.509-.506-1.018-.674-1.527-.843C429.045.168 427.858 0 426.671 0H371.199c-17.472 0-34.775.168-52.248.337-13.062.168-26.124.337-39.186.337-5.768 0-11.705.168-17.473.337-13.062.337-26.124.505-39.186.842-3.732 0-7.464.168-11.196.168-2.205 0-4.241.169-6.446.169l-38.678 1.516c-3.901.168-7.803.337-11.874.505-2.206 0-4.411.168-6.616.337-12.893.674-25.615 1.347-38.508 2.021-6.616.337-13.231.674-19.847 1.18-11.366.673-22.732 1.347-33.928 2.189-9.839.674-19.678 1.179-29.517 1.684-1.526.169-3.053.169-4.75.337-2.544.169-5.089.169-7.633.337-2.205.168-4.41.168-6.786.168-.17-.505-.848-1.01-1.357-1.01-1.527.168-2.884.337-4.41.505-.679 0-1.357.337-1.527 1.18-.17.841.34 1.684 1.018 1.852.678.169 1.187.337 1.866.505.678.169 1.187.169 1.866.169 1.696.674 3.223.674 4.92.842Zm396.951-5.558h6.277c.17.505.509.842.848 1.179-.848 0-1.696.168-2.375.168-1.527 0-3.053.168-4.58.168-6.785.169-13.401.506-20.187.674-3.053.169-6.107.337-9.16.337-4.75 0-9.67.169-14.419.169-11.027.168-21.884.336-32.91.505-21.374.337-42.579.674-63.953 1.01-15.268.169-30.535.674-45.802 1.18-22.901.673-45.972 1.179-68.873 1.853-4.58.168-9.16.336-13.741.673-13.062.674-26.124 1.18-39.186 1.853-12.723.674-25.615 1.18-38.338 1.853-1.187 0-2.375.168-3.562.168 3.392-.337 6.955-.505 10.348-.842 12.044-.842 24.088-1.853 36.132-2.695 4.241-.337 8.482-.674 12.553-1.01 2.206-.169 4.411-.337 6.447-.337 12.553-.674 25.106-1.516 37.659-2.19 2.375-.169 4.92-.337 7.295-.505 3.562-.169 7.124-.337 10.517-.337l38.677-1.516c2.884-.169 5.768-.169 8.482-.337h2.206c2.035 0 4.071 0 5.937-.169 12.892-.337 25.954-.505 38.847-.842 5.937-.168 11.874-.337 17.812-.337l57.676-.505c20.187 0 39.865 0 59.373-.168ZM35.317 39.583c.562 0 1.018-.452 1.018-1.01 0-.559-.456-1.011-1.018-1.011s-1.018.453-1.018 1.01c0 .559.456 1.011 1.018 1.011Z" fill="#26A4FF"/></svg>